<svg width="132" height="178" viewBox="0 0 132 178" fill="none" xmlns="http://www.w3.org/2000/svg">
<path d="M22.5168 55.9103V87.9989C22.5168 90.3463 20.6173 92.2651 18.2684 92.2651H17.6556C15.3067 92.2651 13.3867 90.3484 13.3867 87.9989V55.9103C13.3867 53.522 15.2658 51.644 17.6556 51.644H18.2684C20.6581 51.644 22.5168 53.522 22.5168 55.9103Z" fill="#39E991"/>
<path d="M39.8984 54.318V104.206C39.8984 106.513 37.9376 108.452 35.6295 108.452H34.9555C32.6066 108.452 30.707 106.552 30.707 104.206V54.318C30.707 51.9297 32.5657 50.0518 34.9555 50.0518H35.6295C37.9784 50.0518 39.8984 51.9705 39.8984 54.318Z" fill="#39E991"/>
<path d="M57.1972 52.7257V116.311C57.1972 118.658 55.2772 120.557 52.9488 120.557H52.2747C49.9258 120.557 48.0059 118.658 48.0059 116.311V52.7257C48.0059 50.3783 49.9258 48.4595 52.2747 48.4595H52.9488C55.2772 48.4595 57.1972 50.3783 57.1972 52.7257Z" fill="#39E991"/>
<path d="M131.321 128.579V130.479C131.321 136.297 126.585 141.012 120.761 141.012C94.5967 141.012 88.5917 141.012 86.8964 141.235V141.174C71.986 143.786 60.8134 156.526 59.6103 172.221C59.3448 172.754 59.3244 173.385 59.5695 173.938C59.5695 173.958 59.5695 173.958 59.5695 173.979V174.591C58.1193 175.818 49.459 178 34.4056 178C19.4951 178 10.8552 175.857 9.30292 174.634C9.26207 172.103 8.91484 166.877 8.13868 164.448C7.87315 163.693 7.5872 163.04 7.30124 162.386C6.50466 160.486 5.4017 158.608 4.07405 156.957C3.99235 156.855 3.91065 156.773 3.82895 156.691C3.74725 156.61 3.68598 156.528 3.6247 156.467C2.74641 155.467 1.94983 154.65 1.23495 153.997C0.234109 152.017 0.295385 150.486 0.397511 146.977C0.438361 145.711 0.47921 144.262 0.47921 142.507V85.7738C0.47921 78.5477 3.07322 72.7301 7.70975 69.3416V87.9171C7.70975 93.4081 12.1625 97.858 17.6364 97.858H18.3105C20.9045 97.858 23.2534 96.8578 25.0304 95.2452V104.127C25.0304 109.597 29.4831 114.045 34.957 114.045H35.6311C38.2251 114.045 40.6148 113.047 42.3918 111.371V116.229C42.3918 121.7 46.8445 126.15 52.3185 126.15H52.9925C58.4665 126.15 62.9192 121.698 62.9192 116.229V64.3405H62.8375C63.0826 62.0543 63.0622 55.5835 63.0213 34.9668C62.9805 20.3514 62.9192 5.77677 62.9192 5.77677C62.9192 2.5924 65.5132 0 68.72 0H70.2519C73.5199 0 76.0914 2.55157 76.0914 5.77677C75.9076 104.39 76.071 105.247 76.1343 105.533C77.2373 110.698 80.8526 115.007 85.8363 117.107C86.6942 117.413 87.6338 117.781 88.655 117.944C88.7571 117.967 88.8593 117.967 88.9614 117.967L120.761 118.026C126.583 118.026 131.321 122.761 131.321 128.579Z" fill="#39E991"/>
</svg>
