<svg width="754" height="178" viewBox="0 0 754 178" fill="none" xmlns="http://www.w3.org/2000/svg">
<path d="M43.5168 55.9103V87.9989C43.5168 90.3463 41.6173 92.2651 39.2684 92.2651H38.6556C36.3067 92.2651 34.3867 90.3484 34.3867 87.9989V55.9103C34.3867 53.522 36.2658 51.644 38.6556 51.644H39.2684C41.6581 51.644 43.5168 53.522 43.5168 55.9103Z" fill="#39E991"/>
<path d="M60.8984 54.318V104.206C60.8984 106.513 58.9376 108.452 56.6295 108.452H55.9555C53.6066 108.452 51.707 106.552 51.707 104.206V54.318C51.707 51.9297 53.5657 50.0518 55.9555 50.0518H56.6295C58.9784 50.0518 60.8984 51.9705 60.8984 54.318Z" fill="#39E991"/>
<path d="M78.1972 52.7257V116.311C78.1972 118.658 76.2772 120.557 73.9488 120.557H73.2747C70.9258 120.557 69.0059 118.658 69.0059 116.311V52.7257C69.0059 50.3783 70.9258 48.4595 73.2747 48.4595H73.9488C76.2772 48.4595 78.1972 50.3783 78.1972 52.7257Z" fill="#39E991"/>
<path d="M152.321 128.579V130.479C152.321 136.297 147.585 141.012 141.761 141.012C115.597 141.012 109.592 141.012 107.896 141.235V141.174C92.986 143.786 81.8134 156.526 80.6103 172.221C80.3448 172.754 80.3244 173.385 80.5695 173.938C80.5695 173.958 80.5695 173.958 80.5695 173.979V174.591C79.1193 175.818 70.459 178 55.4056 178C40.4951 178 31.8552 175.857 30.3029 174.634C30.2621 172.103 29.9148 166.877 29.1387 164.448C28.8732 163.693 28.5872 163.04 28.3012 162.386C27.5047 160.486 26.4017 158.608 25.0741 156.957C24.9924 156.855 24.9107 156.773 24.829 156.691C24.7473 156.61 24.686 156.528 24.6247 156.467C23.7464 155.467 22.9498 154.65 22.2349 153.997C21.2341 152.017 21.2954 150.486 21.3975 146.977C21.4384 145.711 21.4792 144.262 21.4792 142.507V85.7738C21.4792 78.5477 24.0732 72.7301 28.7098 69.3416V87.9171C28.7098 93.4081 33.1625 97.858 38.6364 97.858H39.3105C41.9045 97.858 44.2534 96.8578 46.0304 95.2452V104.127C46.0304 109.597 50.4831 114.045 55.957 114.045H56.6311C59.2251 114.045 61.6148 113.047 63.3918 111.371V116.229C63.3918 121.7 67.8445 126.15 73.3185 126.15H73.9925C79.4665 126.15 83.9192 121.698 83.9192 116.229V64.3405H83.8375C84.0826 62.0543 84.0622 55.5835 84.0213 34.9668C83.9805 20.3514 83.9192 5.77677 83.9192 5.77677C83.9192 2.5924 86.5132 0 89.72 0H91.2519C94.5199 0 97.0914 2.55157 97.0914 5.77677C96.9076 104.39 97.071 105.247 97.1343 105.533C98.2373 110.698 101.853 115.007 106.836 117.107C107.694 117.413 108.634 117.781 109.655 117.944C109.757 117.967 109.859 117.967 109.961 117.967L141.761 118.026C147.583 118.026 152.321 122.761 152.321 128.579Z" fill="#39E991"/>
<path d="M198.64 100.192H243.435V107.926H190.9V70.35H198.639L198.64 100.192ZM307.051 78.2279L262.256 78.2279V85.4299L292.133 85.541L292.104 93.275L262.256 93.1638V100.339H307.05V108.073H254.516V70.4966H307.05L307.051 78.2279ZM369.971 100.192L370.085 107.849L366.255 107.907C365.66 107.916 364.987 107.926 364.253 107.926C358.949 107.926 350.443 107.4 345.062 102.102C342.506 99.5859 340.961 96.3399 340.443 92.4291C337.627 92.8389 334.529 93.0616 331.139 93.0616H325.73V107.836H318.068V70.6293H325.73V85.4044H331.139C346.823 85.4044 355.029 80.0508 355.029 74.7618V70.933H362.691V74.7614C362.691 81.0562 358.031 87.3891 347.961 90.7023C348.165 93.2568 348.981 95.2113 350.44 96.6479C354.28 100.429 362.291 100.309 366.14 100.251L369.971 100.192ZM390.348 78.4038C389.629 78.801 388.894 79.468 388.894 81.4003C388.894 82.9065 389.381 83.7298 390.632 84.3356C391.897 84.9483 393.308 84.993 393.379 84.9948L421.507 85.1047C426.394 85.1047 433.688 88.1214 433.688 96.4325C433.688 104.744 426.91 107.76 422.353 107.76H381.154V100.027H422.317C422.654 100.015 423.662 99.888 424.493 99.4288C425.213 99.0311 425.948 98.3642 425.948 96.4323C425.948 94.9261 425.461 94.1028 424.209 93.497C422.948 92.886 421.538 92.8399 421.459 92.8377L393.35 92.7128V92.7279C388.447 92.7279 381.153 89.7111 381.153 81.4C381.153 73.089 387.932 70.0722 392.488 70.0722H433.687V77.8058H392.524C392.187 77.8175 391.179 77.9445 390.348 78.4038ZM452.368 108.117H444.705V70.9097H452.368V108.117ZM515.332 100.192L515.446 107.849L511.616 107.907C511.021 107.916 510.348 107.926 509.614 107.926C504.31 107.926 495.803 107.4 490.423 102.102C487.867 99.5859 486.322 96.3399 485.804 92.4291C482.988 92.8389 479.89 93.0616 476.5 93.0616H471.091V107.836H463.429V70.6293H471.091V85.4044H476.5C492.184 85.4044 500.39 80.0508 500.39 74.7618V70.933H508.052V74.7614C508.052 81.0562 503.392 87.3891 493.321 90.7023C493.526 93.2568 494.341 95.2113 495.8 96.6479C499.641 100.429 507.651 100.309 511.501 100.251L515.332 100.192ZM553.433 68.5425L583.681 108.698H573.955L565.497 97.5064H541.37L533.035 108.698H523.418L553.433 68.5425ZM547.173 89.7718H559.693L553.433 81.4304L547.173 89.7718ZM599.387 106.689L591.648 106.689V98.8655H599.387L599.387 106.689ZM662.97 70.1105L663.108 88.887C663.164 93.0415 661.487 97.0748 658.384 100.245C655.093 103.606 648.69 107.631 636.87 107.717C636.756 107.718 636.64 107.719 636.527 107.719C627.579 107.719 620.106 105.15 615.456 100.468C612.258 97.25 610.527 93.1495 610.576 88.9179L610.437 70.1684L618.175 70.1111L618.314 88.9423L618.314 88.9845C618.282 91.1662 619.193 93.2527 620.948 95.0193C624.178 98.2717 629.81 100.031 636.814 99.9836C643.959 99.931 649.655 98.1033 652.853 94.8362C654.531 93.1219 655.402 91.0986 655.371 88.9842V88.9566L655.232 70.1682L662.97 70.1105ZM726.718 70.1237V78.0108L689.227 99.9674H726.718V107.701H674.183V99.8139L711.674 77.8566H674.183V70.1233L726.718 70.1237Z" fill="white"/>
</svg>
